<svg xmlns="http://www.w3.org/2000/svg" viewBox="0 0 720 420" role="img" aria-labelledby="title desc">
  <title id="title">Chinese birth signs calendar illustration</title>
  <desc id="desc">Original calendar and zodiac wheel illustration for Chinese birth sign lookup.</desc>
  <defs>
    <linearGradient id="bg" x1="0" x2="1" y1="0" y2="1">
      <stop offset="0" stop-color="#f7fbf6"/>
      <stop offset="1" stop-color="#efe1c9"/>
    </linearGradient>
    <filter id="shadow" x="-20%" y="-20%" width="140%" height="140%">
      <feDropShadow dx="0" dy="16" stdDeviation="14" flood-color="#4b3523" flood-opacity=".16"/>
    </filter>
  </defs>
  <rect width="720" height="420" rx="34" fill="url(#bg)"/>
  <path d="M48 72h624M48 348h624M108 38v344M612 38v344" stroke="#d9c39c" stroke-width="2" opacity=".55"/>
  <g filter="url(#shadow)">
    <rect x="96" y="82" width="260" height="250" rx="24" fill="#fffdf7" stroke="#dfceb1" stroke-width="4"/>
    <rect x="96" y="82" width="260" height="70" rx="24" fill="#b3343a"/>
    <path d="M96 130h260" stroke="#8e2529" stroke-width="4"/>
    <circle cx="154" cy="112" r="13" fill="#fff0d6"/>
    <circle cx="298" cy="112" r="13" fill="#fff0d6"/>
    <g fill="#2f7167" opacity=".9">
      <rect x="132" y="178" width="34" height="28" rx="8"/>
      <rect x="184" y="178" width="34" height="28" rx="8"/>
      <rect x="236" y="178" width="34" height="28" rx="8"/>
      <rect x="288" y="178" width="34" height="28" rx="8"/>
      <rect x="132" y="226" width="34" height="28" rx="8"/>
      <rect x="184" y="226" width="34" height="28" rx="8"/>
      <rect x="236" y="226" width="34" height="28" rx="8"/>
      <rect x="288" y="226" width="34" height="28" rx="8"/>
      <rect x="132" y="274" width="34" height="28" rx="8"/>
      <rect x="184" y="274" width="34" height="28" rx="8"/>
      <rect x="236" y="274" width="34" height="28" rx="8"/>
    </g>
  </g>
  <g transform="translate(435 210)" filter="url(#shadow)">
    <circle r="118" fill="#fffdf7" stroke="#dfceb1" stroke-width="5"/>
    <circle r="82" fill="#f7efe1" stroke="#cfa45e" stroke-width="3"/>
    <circle r="36" fill="#b3343a"/>
    <g fill="#2f7167" font-family="Georgia, serif" font-size="22" font-weight="700" text-anchor="middle" dominant-baseline="middle">
      <text x="0" y="-96">Rat</text>
      <text x="48" y="-82">Ox</text>
      <text x="84" y="-48">Tiger</text>
      <text x="98" y="0">Rabbit</text>
      <text x="84" y="48">Dragon</text>
      <text x="48" y="82">Snake</text>
      <text x="0" y="96">Horse</text>
      <text x="-48" y="82">Goat</text>
      <text x="-84" y="48">Monkey</text>
      <text x="-98" y="0">Rooster</text>
      <text x="-84" y="-48">Dog</text>
      <text x="-48" y="-82">Pig</text>
    </g>
    <path d="M0-34c18 29 18 59 0 88-18-29-18-59 0-88z" fill="#fff0d6" opacity=".9"/>
    <path d="M-54 0c36-18 72-18 108 0-36 18-72 18-108 0z" fill="#fff0d6" opacity=".9"/>
  </g>
  <path d="M390 86c35 15 68 38 98 70m-168 181c-38-13-72-35-101-67" fill="none" stroke="#b3343a" stroke-width="9" stroke-linecap="round" opacity=".22"/>
</svg>
